<?xml version="1.0" encoding="UTF-8" standalone="no"?>
<!-- Designed by Vexels.com - 2016 All Rights Reserved - https://vexels.com/terms-and-conditions/  -->

<svg
   xmlns:dc="http://purl.org/dc/elements/1.1/"
   xmlns:cc="http://creativecommons.org/ns#"
   xmlns:rdf="http://www.w3.org/1999/02/22-rdf-syntax-ns#"
   xmlns:svg="http://www.w3.org/2000/svg"
   xmlns="http://www.w3.org/2000/svg"
   xmlns:sodipodi="http://sodipodi.sourceforge.net/DTD/sodipodi-0.dtd"
   xmlns:inkscape="http://www.inkscape.org/namespaces/inkscape"
   version="1.1"
   id="Layer_1"
   x="0px"
   y="0px"
   width="1100"
   height="317.93457"
   viewBox="0 0 1100 317.93457"
   enable-background="new 0 0 1200 1200"
   xml:space="preserve"
   sodipodi:docname="philadelphia.svg"
   inkscape:version="0.92.2 5c3e80d, 2017-08-06"><metadata
     id="metadata11"><rdf:RDF><cc:Work
         rdf:about=""><dc:format>image/svg+xml</dc:format><dc:type
           rdf:resource="http://purl.org/dc/dcmitype/StillImage" /></cc:Work></rdf:RDF></metadata><defs
     id="defs9" /><sodipodi:namedview
     pagecolor="#ffffff"
     bordercolor="#666666"
     borderopacity="1"
     objecttolerance="10"
     gridtolerance="10"
     guidetolerance="10"
     inkscape:pageopacity="0"
     inkscape:pageshadow="2"
     inkscape:window-width="1620"
     inkscape:window-height="935"
     id="namedview7"
     showgrid="false"
     inkscape:zoom="0.55625733"
     inkscape:cx="547.85751"
     inkscape:cy="136.61905"
     inkscape:window-x="0"
     inkscape:window-y="0"
     inkscape:window-maximized="0"
     inkscape:current-layer="Layer_1" /><g
     id="g4"
     transform="translate(-50,-441.03444)"><path
       d="m 921.128,741.185 v -26.414 h -23.212 v -11.175 h -13.09 l -0.134,-104.716 -2.63,-0.137 -0.149,-0.729 -1.313,-0.14 -1.966,-20.274 -7.623,-10.185 -4.97,-2.758 0.285,-2.187 -1.026,-0.87 -0.319,-8.025 -6.444,-8.44 -0.164,-4.23 -6.009,-7.417 0.13,-3.648 -6.593,-8.587 -1.609,-0.867 -1.335,-4.813 0.396,-12.985 c 0,-0.734 -0.588,-1.749 -0.588,-1.749 l -0.164,-4.377 -0.296,-1.167 -0.579,1.172 -0.273,4.524 c -0.734,0.147 -0.581,1.61 -0.581,1.61 l -0.099,13.129 -2.169,5.26 -3.641,1.619 -2.169,5.549 -2.331,1.177 -1.73,5.987 -2.621,1.323 -2.163,7.152 -3.056,1.764 -0.148,0.731 h -0.727 l -4.618,13.878 -0.831,12.551 c -0.583,0.002 -0.581,1.314 -0.581,1.314 l -0.553,7.152 -1.316,0.878 -0.422,113.795 h -9.64 v -45.142 l -8.167,-8.162 -9.461,9.458 v 44.703 H 774.115 V 685.54 h -6.95 l -1.11,-85.929 -5.704,-0.473 -0.474,-33.731 -3.802,-6.656 -1.423,-9.5 -13.778,-10.452 -2.377,-8.074 -1.423,7.131 -13.776,10.448 -0.949,9.502 -4.279,4.277 -0.949,37.529 -6.648,0.473 -1.038,78.577 h -15.271 v 10.32 h -8.602 v -31.81 H 673.22 l -2.187,-211.707 -21.165,-3.895 -30.075,6.122 -1.116,28.965 -4.455,0.552 -1.118,39.551 h -5.564 l -0.559,7.797 -3.344,0.557 -1.115,17.266 h -5.01 l -2.813,144.023 h -8.005 v -54.166 h -5.16 v 55.023 h -4.299 v -24.5 h -7.755 l 0.05,-2.67 c 2.021,-1.083 -0.157,-1.551 -0.157,-1.551 l 0.313,-1.868 c 1.402,-0.778 0.154,-0.934 0.154,-0.934 v -3.578 l 3.112,-1.093 c -0.151,-0.932 0.935,-2.019 0.935,-2.019 l -0.778,-1.4 -3.115,-1.244 -0.155,-2.022 -0.467,-0.78 0.157,-3.739 0.621,-1.551 -1.09,-1.556 0.158,-24.12 c 0.776,-0.468 0.154,-0.929 0.154,-0.929 l 0.313,-1.402 c 0.774,-0.312 0,-1.09 0,-1.09 l -0.12,-2.451 1.522,-0.352 1.981,-2.334 c 0.114,-6.651 -3.619,-8.635 -3.619,-8.635 -1.4,-1.284 -1.4,-6.094 -1.4,-6.094 0.549,-0.191 -0.33,-1.426 -0.33,-1.426 1.208,-0.96 -0.991,-1.426 -0.991,-1.426 -1.095,-1.349 2.061,-3.243 2.061,-3.243 1.455,-0.405 1.349,-1.726 1.349,-1.726 -0.278,-0.275 -1.183,-0.112 -1.183,-0.112 1.099,-0.685 0.659,-0.904 0.659,-0.904 -0.633,-0.601 -3.377,0.718 -3.377,0.718 -0.464,-0.333 0.989,-1.242 0.989,-1.242 0.438,-0.054 0.192,-0.459 0.192,-0.459 -3.923,-0.883 -3.237,2.821 -3.237,2.821 -0.305,-0.026 -0.773,0.606 -0.773,0.606 l -0.142,-2.453 c -0.821,-30.691 -10.329,-50.124 -10.329,-50.124 l 0.873,-0.354 c 0.641,-5.188 -1.223,-5.307 -1.223,-5.307 l -0.061,-1.4 -0.58,-0.701 -0.408,-6.183 -0.41,6.304 -0.645,0.461 -0.053,1.172 -4.854,-8.452 2.286,-1.756 c -0.372,-1.17 -2.406,-0.617 -2.406,-0.617 l -2.31,-4.282 0.893,-0.678 -0.03,-1.389 0.77,-0.554 c 3.049,-0.061 2.31,-0.766 2.31,-0.766 -0.154,-0.834 0.8,-1.912 0.8,-1.912 1.204,-0.676 -0.09,-0.832 -0.09,-0.832 0.09,-0.37 -0.375,-0.494 -0.375,-0.494 l 0.034,-5.388 0.46,-0.592 c -0.862,-1.139 -6.193,-1.104 -6.193,-1.104 0.156,-5.027 -2.864,-9.153 -2.864,-9.153 0.739,-0.829 -0.092,-1.202 -0.092,-1.202 -0.185,-2.187 -1.076,-3.14 -1.076,-3.14 0,-1.081 -0.865,-1.298 -0.865,-1.298 0.033,-0.89 1.294,-1.044 1.294,-1.044 l 0.092,-2.313 c 2.069,-0.275 -0.309,-0.741 -0.309,-0.741 -0.212,-0.31 -1.078,-1.2 -1.078,-1.2 -0.495,-0.466 -0.31,-1.204 -0.31,-1.204 0.588,-0.678 1.943,-4.987 1.943,-4.987 1.449,-1.547 0.461,-2.59 0.461,-2.59 -0.124,-0.151 -0.061,-0.739 -0.061,-0.739 0.739,-0.091 0.429,-0.524 0.429,-0.524 -0.242,-0.31 -0.643,-1.696 -0.857,-2.402 -0.219,-0.71 -0.62,-3.205 -0.62,-4.314 0,-1.109 -0.459,-4.836 -0.339,-5.67 0.093,-0.615 -0.302,-1.707 -0.554,-2.145 0.133,0.009 0.28,-0.009 0.28,-0.009 0.46,-1.512 -1.694,-3.264 -1.694,-3.264 -0.37,-0.342 -0.122,-0.927 -0.122,-0.927 0.707,-0.154 0.585,-1.202 0.585,-1.202 0.583,-0.184 0.155,-0.587 0.155,-0.587 -0.185,-0.182 0.149,-0.736 0.149,-0.736 0.127,-0.123 1.387,-0.063 1.387,-0.063 1.139,-0.801 -1.633,-1.605 -1.633,-1.605 -0.089,-1.722 -1.752,-1.444 -1.752,-1.444 -1.881,0.03 -1.573,1.444 -1.573,1.444 -1.604,0 -2.131,0.869 -2.131,0.869 -0.641,0.95 1.577,0.862 1.577,0.862 -0.554,0.182 -0.312,1.381 -0.312,1.381 -1.015,0.834 -0.61,1.728 -0.61,1.728 0,0.186 -0.9,0.736 -0.9,0.736 -1.755,0.99 -0.982,3.208 -0.766,4.163 0.213,0.948 0.396,3.054 0.396,3.054 -1.412,1.444 0.311,2.155 0.311,2.155 -0.554,0.701 -1.723,7.545 -1.723,7.545 -0.434,0.955 0.522,0.864 0.522,0.864 l 2.094,0.091 c -0.398,0.335 -0.153,4.067 -0.153,4.067 -0.681,0.741 -1.261,7.336 -1.261,7.336 l -0.343,0.151 0.124,2.122 c 0.958,0.158 1.201,1.02 1.201,1.02 -1.108,0.275 -0.83,1.384 -0.83,1.384 -0.832,0.468 -1.111,3.296 -1.111,3.296 -0.707,0.187 -0.215,1.116 -0.215,1.116 -2.556,2.029 -2.616,8.624 -2.616,8.624 -4.469,0 -6.411,2.029 -6.411,2.029 l 0.372,0.403 -0.061,4.778 c -0.461,-0.063 -0.368,0.676 -0.368,0.676 -1.269,0.154 -0.219,1.079 -0.219,1.079 0.682,0.184 0.831,1.945 0.831,1.945 -0.395,0.613 2.286,0.552 2.286,0.552 l 0.889,0.86 -0.033,1.172 1.574,0.799 -1.511,3.974 c -2.801,-0.706 -3.415,0.96 -3.415,0.96 l 1.689,1.722 -4.252,8.382 h -0.647 v -1.381 l -0.646,-0.65 -0.278,-6.164 h -0.183 l -0.246,5.512 -0.027,0.678 -0.579,0.468 0.111,1.635 -0.811,0.116 c -0.701,0.233 -0.471,5.719 -0.471,5.719 l 0.82,0.231 c -5.955,10.383 -9.602,36.809 -9.602,36.809 -1.235,0.473 -1.198,5.659 -1.198,5.659 -0.036,3.702 -1.995,4.685 -1.995,4.685 -1.345,0.144 1.051,1.815 1.051,1.815 l -1.195,1.013 c -2.07,-1.666 -2.468,-0.179 -2.468,-0.179 -0.219,-0.179 -0.692,-0.072 -0.692,-0.072 -2.32,-0.107 -0.364,0.983 -0.364,0.983 1.162,0.871 0.147,0.617 0.147,0.617 -2.942,-0.582 -1.234,0.981 -1.234,0.981 3.699,1.812 3.085,3.916 3.085,3.916 -2.361,-0.14 -1.019,1.926 -1.019,1.926 l -0.544,0.398 -0.181,4.391 c -2.361,0.436 -3.086,8.861 -3.086,8.861 l 1.489,1.267 0.072,0.724 2.468,1.235 v 1.565 c -1.306,0.398 0.147,1.232 0.147,1.232 v 1.051 c -0.91,0.256 0.143,1.018 0.143,1.018 l -0.397,22.61 c -0.728,0.44 -0.586,1.745 -0.586,1.745 l -1.159,0.074 0.072,0.475 0.945,1.591 v 3.52 l -0.546,1.053 -0.036,2.146 -2.504,0.035 -0.177,1.2 -1.057,-0.072 v 0.433 l 1.057,0.839 0.07,1.011 2.141,2.038 0.798,0.724 c -1.633,0.976 -0.072,2.178 -0.072,2.178 l -0.545,0.147 0.8,1.053 v 1.558 l -1.016,-0.035 0.035,0.724 0.981,1.309 0.072,0.398 c -0.909,0.035 0.072,1.2 0.072,1.2 l -0.154,12.523 h -13.8 v 21.492 h -12.898 v -6.877 H 459.45 v -16.765 h -9.579 V 570.54 c -0.061,-0.946 1.888,-3.657 1.888,-3.657 V 565.7 h -0.354 v -0.888 l -1.117,0.774 h -6.196 v -0.832 h -1.654 v -6.073 l 0.708,-1.3 h -4.777 v -2.001 h 0.471 v -1.598 c -0.646,-1.002 -1.475,0.356 -1.475,0.356 l -11.975,-18.051 -11.86,19.41 h -1.118 l -0.059,1.47 -1.654,-0.058 c -0.29,-1.824 -0.883,0.058 -0.883,0.058 l -0.47,0.063 -1.301,2.476 c 0.768,0 0.711,1.062 0.711,1.062 v 4.487 h -6.431 l -0.059,-0.71 h -0.354 l -1.887,3.303 -0.059,1.652 c 1.59,0.529 2.127,4.247 2.127,4.247 l 0.51,119.73 h -9.346 v -15.473 h -9.459 V 695 h -11.172 v -22.356 h -8.788 l -1.414,-82.539 -2.622,0.95 0.82,-13.83 -2.632,0.366 0.821,-13.534 -2.927,0.368 0.539,-12.938 -2.637,0.072 0.002,-11.163 -2.348,0.058 0.629,-9.707 -2.347,0.061 0.379,-7.939 -13.8,-11.098 -14.397,-0.212 -0.415,6.767 -2.628,0.655 -0.311,10.581 -1.759,0.049 -0.082,8.228 -3.23,0.082 0.093,14.683 -3.232,0.084 0.135,16.449 -3.515,0.382 0.126,16.148 -4.251,-0.012 -0.166,84.412 h -13.012 v 32.24 l -5.588,5.586 v -8.594 h -15.475 l -5.159,17.194 h -24.072 v 24.292 h -5.09 L 50,752.875 v 6.094 l 1100,-1.461 v -3.722 z"
       id="path2"
       inkscape:connector-curvature="0"
       style="fill:#3c3c3b" /></g></svg>